<?xml version="1.0" encoding="utf-8"?>
<svg id="master-artboard" viewBox="0 0 65 65" version="1.1" xmlns="http://www.w3.org/2000/svg" x="0px" y="0px" style="enable-background:new 0 0 1400 980;" width="65px" height="65px"><defs><style id="ee-google-fonts">@import url(https://fonts.googleapis.com/css?family=Bubblegum+Sans:400);</style><path id="text-path-0" d="M 778.8464965820312 213.4612274169922 A 100 18 0 0 1 988.3533935546875 213.4612274169922 A 100 18 0 0 1 778.8464965820312 213.4612274169922 Z" style="fill: none; stroke: red; stroke-width: 2;"/><path id="text-path-1" d="M 664.5464477539062 37.96122741699219 A 100 19 0 0 1 876.5812377929688 37.96122741699219 A 100 19 0 0 1 664.5464477539062 37.96122741699219" style="fill: none; stroke: red; stroke-width: 2;"/><path id="text-path-2" d="M 765.3650512695312 211.70851135253906 A 100 17 0 0 1 991.5017700195312 211.70851135253906 A 100 17 0 0 1 765.3650512695312 211.70851135253906" style="fill: none; stroke: red; stroke-width: 2;"/><path id="path-1" d="M 765.3650512695312 211.70851135253906 A 100 17 0 0 1 991.5017700195312 211.70851135253906 A 100 17 0 0 1 765.3650512695312 211.70851135253906" style="fill: none; stroke: red; stroke-width: 2;"/></defs><rect id="ee-background" x="0" y="0" width="65" height="65" style="fill: white; fill-opacity: 0; pointer-events: none;"/>


<path d="M 18.899999618530273 -2.0699996948242188 L 18.979999542236328 5.959999084472656 C 18.979999542236328 11.58666706085205 18.84000015258789 14.973333358764648 18.559999465942383 16.119998931884766 C 18 18.386667251586914 16.90999984741211 20.100000381469727 15.289999961853027 21.260000228881836 C 13.66333293914795 22.426666259765625 11.743332862854004 23.010000228881836 9.529999732971191 23.010000228881836 C 8.583333015441895 23.010000228881836 7.723333358764648 22.926666259765625 6.949999809265137 22.760000228881836 C 6.183333396911621 22.586666107177734 5.659999847412109 22.41666603088379 5.380000114440918 22.25 L 4.960000038146973 21.959999084472656 C 3.9800000190734863 22.713333129882812 2.816666603088379 23.09000015258789 1.4700000286102295 23.09000015258789 C 1.190000057220459 23.09000015258789 1.0366666316986084 23.0766658782959 1.0099999904632568 23.049999237060547 L 0.8399999737739563 20.90999984741211 C 0.8399999737739563 17.183334350585938 0.9933333396911621 14.49333381652832 1.2999999523162842 12.84000015258789 L 1.4700000286102295 11.920000076293945 C 1.6366666555404663 11.693333625793457 2.1533334255218506 11.446666717529297 3.0199999809265137 11.180000305175781 C 3.8933334350585938 10.920000076293945 4.663333415985107 10.789999961853027 5.329999923706055 10.789999961853027 C 5.329999923706055 13.869999885559082 5.696666717529297 15.933333396911621 6.429999828338623 16.979999542236328 C 7.1566667556762695 18.03333282470703 8.260000228881836 18.559999465942383 9.739999771118164 18.559999465942383 C 12.399999618530273 18.559999465942383 13.729999542236328 16.079999923706055 13.729999542236328 11.119999885559082 L 13.779999732971191 4.530000686645508 C 13.779999732971191 1.1100006103515625 13.623332977294922 -0.7533340454101562 13.3100004196167 -1.0599994659423828 C 12.75 -1.6200008392333984 11.59000015258789 -1.8999996185302734 9.829999923706055 -1.8999996185302734 L 9.65999984741211 -1.8999996185302734 C 9.546667098999023 -1.9533329010009766 9.489999771118164 -2.2333335876464844 9.489999771118164 -2.739999771118164 C 9.489999771118164 -3.239999771118164 9.5600004196167 -3.7566661834716797 9.699999809265137 -4.290000915527344 C 9.84000015258789 -4.823333740234375 9.960000038146973 -5.1399993896484375 10.0600004196167 -5.239999771118164 C 10.15999984741211 -5.333333969116211 10.600000381469727 -5.466667175292969 11.380000114440918 -5.6399993896484375 C 13.733333587646484 -6.086666107177734 16.406665802001953 -6.309999465942383 19.399999618530273 -6.309999465942383 C 19.793333053588867 -6.309999465942383 19.989999771118164 -6.280000686645508 19.989999771118164 -6.219999313354492 C 19.989999771118164 -5.553333282470703 19.809999465942383 -4.700000762939453 19.450000762939453 -3.6599998474121094 C 19.08333396911621 -2.626667022705078 18.899999618530273 -2.0966663360595703 18.899999618530273 -2.0699996948242188 ZM 26.366943359375 23.389999389648438 L 25.06694221496582 23.260000228881836 C 25.013608932495117 22.979999542236328 24.986942291259766 21.06999969482422 24.986942291259766 17.530000686645508 C 24.986942291259766 13.983333587646484 25.000276565551758 11.49666690826416 25.02694320678711 10.069999694824219 C 24.55360984802246 9.623332977294922 24.083608627319336 8.930000305175781 23.616943359375 7.989999771118164 C 23.15694236755371 7.056666374206543 22.926942825317383 6.25333309173584 22.926942825317383 5.579999923706055 C 22.926942825317383 5.553333282470703 23.653610229492188 5.510000228881836 25.106943130493164 5.450000762939453 C 25.140275955200195 4.276666641235352 25.15694236755371 2.9200000762939453 25.15694236755371 1.3799991607666016 C 25.15694236755371 -0.15999984741210938 25.140275955200195 -0.9433326721191406 25.106943130493164 -0.9699993133544922 C 24.800275802612305 -1.2833328247070312 24.403610229492188 -2.020000457763672 23.916942596435547 -3.1800003051757812 C 23.423608779907227 -4.340000152587891 23.176942825317383 -5.090000152587891 23.176942825317383 -5.430000305175781 C 23.48360824584961 -5.736665725708008 28.343608856201172 -5.8899993896484375 37.75694274902344 -5.8899993896484375 C 40.103607177734375 -5.8899993896484375 41.27694320678711 -5.833333969116211 41.27694320678711 -5.719999313354492 C 41.27694320678711 -5.133333206176758 41.146942138671875 -4.489999771118164 40.886940002441406 -3.7900009155273438 C 40.620277404785156 -3.0900001525878906 40.34027862548828 -2.5366668701171875 40.04694366455078 -2.1299991607666016 C 39.74694061279297 -1.7233333587646484 39.556941986083984 -1.5333328247070312 39.47694396972656 -1.5599994659423828 C 39.39027404785156 -1.5866661071777344 38.886940002441406 -1.6000003814697266 37.966941833496094 -1.6000003814697266 C 37.04027557373047 -1.6000003814697266 35.61027526855469 -1.5400009155273438 33.67694091796875 -1.4200000762939453 C 31.743610382080078 -1.2933330535888672 30.6936092376709 -1.1533336639404297 30.52694320678711 -1 C 30.360275268554688 -0.8400001525878906 30.27694320678711 0.6800003051757812 30.27694320678711 3.559999465942383 L 30.31694221496582 5.329999923706055 C 32.95027542114258 5.270000457763672 34.966941833496094 5.239999771118164 36.366943359375 5.239999771118164 C 37.766944885253906 5.239999771118164 38.466941833496094 5.283332824707031 38.466941833496094 5.370000839233398 C 38.466941833496094 6.4633331298828125 38.13027572631836 7.609999656677246 37.456939697265625 8.8100004196167 C 37.236942291259766 9.229999542236328 37.09694290161133 9.4399995803833 37.03694152832031 9.4399995803833 L 36.616943359375 9.4399995803833 C 35.723609924316406 9.4399995803833 34.47694396972656 9.510000228881836 32.8769416809082 9.649999618530273 C 31.28360939025879 9.789999961853027 30.4436092376709 9.90333366394043 30.35694122314453 9.989999771118164 C 30.27694320678711 10.069999694824219 30.236942291259766 11.819999694824219 30.236942291259766 15.239999771118164 C 30.236942291259766 18.65333366394043 30.416942596435547 20.976667404174805 30.77694320678711 22.209999084472656 C 30.77694320678711 22.5766658782959 30.240276336669922 22.863332748413086 29.166942596435547 23.06999969482422 C 28.086942672729492 23.28333282470703 27.153610229492188 23.389999389648438 26.366943359375 23.389999389648438 Z" transform="matrix(1.5669198036193848, 0, 0, 1.5669198036193848, -4.330723762512207, 12.08929443359375)" style="fill: rgb(0, 59, 235); white-space: pre; color: rgb(51, 51, 51);"/><path d="M 23.8737735748291 47.37757873535156" style="fill-opacity: 1; stroke: rgb(0, 0, 0); stroke-opacity: 1; stroke-width: 10; paint-order: fill;"/></svg>